<mxfile host="app.diagrams.net" modified="2020-12-07T09:15:02.822Z" agent="5.0 (Windows)" etag="HFOnjXWNRhFJEDc-Bqqa" version="13.10.9" type="github">
  <diagram id="Ju7JY9pdQUH7Dh3bJ267" name="Page-1">
    <mxGraphModel dx="1038" dy="547" grid="1" gridSize="10" guides="1" tooltips="1" connect="1" arrows="1" fold="1" page="1" pageScale="1" pageWidth="1169" pageHeight="827" math="0" shadow="0">
      <root>
        <mxCell id="0" />
        <mxCell id="1" parent="0" />
        <mxCell id="vWO0dV-lUaELqf2m1uFU-1" value="TENDERING PROCESS" style="swimlane;" vertex="1" parent="1">
          <mxGeometry x="10" y="10" width="1150" height="810" as="geometry" />
        </mxCell>
        <mxCell id="vWO0dV-lUaELqf2m1uFU-2" value="Start" style="rounded=1;whiteSpace=wrap;html=1;" vertex="1" parent="vWO0dV-lUaELqf2m1uFU-1">
          <mxGeometry x="60" y="40" width="100" height="50" as="geometry" />
        </mxCell>
        <mxCell id="vWO0dV-lUaELqf2m1uFU-5" value="Preparation of tender document by HOD procurement or procurement Officer" style="rounded=0;whiteSpace=wrap;html=1;" vertex="1" parent="vWO0dV-lUaELqf2m1uFU-1">
          <mxGeometry x="40" y="170" width="140" height="80" as="geometry" />
        </mxCell>
        <mxCell id="vWO0dV-lUaELqf2m1uFU-4" value="" style="edgeStyle=orthogonalEdgeStyle;rounded=0;orthogonalLoop=1;jettySize=auto;html=1;entryX=0.5;entryY=0;entryDx=0;entryDy=0;" edge="1" parent="vWO0dV-lUaELqf2m1uFU-1" source="vWO0dV-lUaELqf2m1uFU-2" target="vWO0dV-lUaELqf2m1uFU-5">
          <mxGeometry relative="1" as="geometry">
            <mxPoint x="110" y="165" as="targetPoint" />
          </mxGeometry>
        </mxCell>
        <mxCell id="vWO0dV-lUaELqf2m1uFU-10" value="Restricted Tender?" style="rhombus;whiteSpace=wrap;html=1;" vertex="1" parent="vWO0dV-lUaELqf2m1uFU-1">
          <mxGeometry x="60" y="470" width="100" height="80" as="geometry" />
        </mxCell>
        <mxCell id="vWO0dV-lUaELqf2m1uFU-13" value="Selected Bidders download from the specified website or picks and pays for tender documents from the council" style="whiteSpace=wrap;html=1;rounded=0;" vertex="1" parent="vWO0dV-lUaELqf2m1uFU-1">
          <mxGeometry x="20" y="621" width="180" height="80" as="geometry" />
        </mxCell>
        <mxCell id="vWO0dV-lUaELqf2m1uFU-12" value="" style="edgeStyle=orthogonalEdgeStyle;rounded=0;orthogonalLoop=1;jettySize=auto;html=1;entryX=0.5;entryY=0;entryDx=0;entryDy=0;" edge="1" parent="vWO0dV-lUaELqf2m1uFU-1" source="vWO0dV-lUaELqf2m1uFU-10" target="vWO0dV-lUaELqf2m1uFU-13">
          <mxGeometry relative="1" as="geometry">
            <mxPoint x="110" y="640" as="targetPoint" />
          </mxGeometry>
        </mxCell>
        <mxCell id="vWO0dV-lUaELqf2m1uFU-14" value="yes" style="text;html=1;strokeColor=none;fillColor=none;align=center;verticalAlign=middle;whiteSpace=wrap;rounded=0;" vertex="1" parent="vWO0dV-lUaELqf2m1uFU-1">
          <mxGeometry x="110" y="570" width="40" height="20" as="geometry" />
        </mxCell>
        <mxCell id="vWO0dV-lUaELqf2m1uFU-17" value="Selected Bidders download from the specified website or picks and pays for tender documents from the council" style="whiteSpace=wrap;html=1;rounded=0;" vertex="1" parent="vWO0dV-lUaELqf2m1uFU-1">
          <mxGeometry x="235" y="470" width="180" height="80" as="geometry" />
        </mxCell>
        <mxCell id="vWO0dV-lUaELqf2m1uFU-16" value="" style="edgeStyle=orthogonalEdgeStyle;rounded=0;orthogonalLoop=1;jettySize=auto;html=1;entryX=0;entryY=0.5;entryDx=0;entryDy=0;" edge="1" parent="vWO0dV-lUaELqf2m1uFU-1" source="vWO0dV-lUaELqf2m1uFU-10" target="vWO0dV-lUaELqf2m1uFU-17">
          <mxGeometry relative="1" as="geometry">
            <mxPoint x="230" y="510" as="targetPoint" />
          </mxGeometry>
        </mxCell>
        <mxCell id="vWO0dV-lUaELqf2m1uFU-19" value="Bidders complete the tender document and attach all requisite documents and drop in the tender box within the stipulated time" style="whiteSpace=wrap;html=1;rounded=0;" vertex="1" parent="vWO0dV-lUaELqf2m1uFU-1">
          <mxGeometry x="365" y="616" width="170" height="90" as="geometry" />
        </mxCell>
        <mxCell id="vWO0dV-lUaELqf2m1uFU-20" value="" style="edgeStyle=orthogonalEdgeStyle;rounded=0;orthogonalLoop=1;jettySize=auto;html=1;" edge="1" parent="vWO0dV-lUaELqf2m1uFU-1" source="vWO0dV-lUaELqf2m1uFU-13" target="vWO0dV-lUaELqf2m1uFU-19">
          <mxGeometry relative="1" as="geometry" />
        </mxCell>
        <mxCell id="vWO0dV-lUaELqf2m1uFU-21" value="" style="edgeStyle=orthogonalEdgeStyle;rounded=0;orthogonalLoop=1;jettySize=auto;html=1;exitX=0.5;exitY=1;exitDx=0;exitDy=0;entryX=0;entryY=0.5;entryDx=0;entryDy=0;" edge="1" parent="vWO0dV-lUaELqf2m1uFU-1" source="vWO0dV-lUaELqf2m1uFU-17" target="vWO0dV-lUaELqf2m1uFU-19">
          <mxGeometry relative="1" as="geometry" />
        </mxCell>
        <mxCell id="vWO0dV-lUaELqf2m1uFU-22" value="HOD procurement recommends Opening and evaluation committee for appointment" style="whiteSpace=wrap;html=1;rounded=0;" vertex="1" parent="vWO0dV-lUaELqf2m1uFU-1">
          <mxGeometry x="380" y="370" width="140" height="79" as="geometry" />
        </mxCell>
        <mxCell id="vWO0dV-lUaELqf2m1uFU-23" value="" style="edgeStyle=orthogonalEdgeStyle;rounded=0;orthogonalLoop=1;jettySize=auto;html=1;" edge="1" parent="vWO0dV-lUaELqf2m1uFU-1" source="vWO0dV-lUaELqf2m1uFU-19" target="vWO0dV-lUaELqf2m1uFU-22">
          <mxGeometry relative="1" as="geometry" />
        </mxCell>
        <mxCell id="vWO0dV-lUaELqf2m1uFU-26" value="Opening committee convenes to open the tenders" style="whiteSpace=wrap;html=1;rounded=0;" vertex="1" parent="vWO0dV-lUaELqf2m1uFU-1">
          <mxGeometry x="390" y="110" width="120" height="60" as="geometry" />
        </mxCell>
        <mxCell id="vWO0dV-lUaELqf2m1uFU-28" value="Evaluation committee convenes to evaluate the tender documents and forward recommendation to HOD procurement" style="whiteSpace=wrap;html=1;rounded=0;" vertex="1" parent="vWO0dV-lUaELqf2m1uFU-1">
          <mxGeometry x="640" y="95" width="150" height="90" as="geometry" />
        </mxCell>
        <mxCell id="vWO0dV-lUaELqf2m1uFU-29" value="" style="edgeStyle=orthogonalEdgeStyle;rounded=0;orthogonalLoop=1;jettySize=auto;html=1;" edge="1" parent="vWO0dV-lUaELqf2m1uFU-1" source="vWO0dV-lUaELqf2m1uFU-26" target="vWO0dV-lUaELqf2m1uFU-28">
          <mxGeometry relative="1" as="geometry" />
        </mxCell>
        <mxCell id="vWO0dV-lUaELqf2m1uFU-32" value="HOD reviews the report and prepares professional procurement opinion and forwards to the CEO" style="whiteSpace=wrap;html=1;rounded=0;" vertex="1" parent="vWO0dV-lUaELqf2m1uFU-1">
          <mxGeometry x="620" y="240" width="190" height="67.5" as="geometry" />
        </mxCell>
        <mxCell id="vWO0dV-lUaELqf2m1uFU-31" value="" style="edgeStyle=orthogonalEdgeStyle;rounded=0;orthogonalLoop=1;jettySize=auto;html=1;entryX=0.5;entryY=0;entryDx=0;entryDy=0;" edge="1" parent="vWO0dV-lUaELqf2m1uFU-1" source="vWO0dV-lUaELqf2m1uFU-28" target="vWO0dV-lUaELqf2m1uFU-32">
          <mxGeometry relative="1" as="geometry">
            <mxPoint x="715" y="280" as="targetPoint" />
          </mxGeometry>
        </mxCell>
        <mxCell id="vWO0dV-lUaELqf2m1uFU-34" value="&lt;div&gt;CEO &lt;br&gt;&lt;/div&gt;&lt;div&gt;agrees?&lt;/div&gt;" style="rhombus;whiteSpace=wrap;html=1;rounded=0;" vertex="1" parent="vWO0dV-lUaELqf2m1uFU-1">
          <mxGeometry x="672.5" y="350" width="85" height="80" as="geometry" />
        </mxCell>
        <mxCell id="vWO0dV-lUaELqf2m1uFU-35" value="" style="edgeStyle=orthogonalEdgeStyle;rounded=0;orthogonalLoop=1;jettySize=auto;html=1;" edge="1" parent="vWO0dV-lUaELqf2m1uFU-1" source="vWO0dV-lUaELqf2m1uFU-32" target="vWO0dV-lUaELqf2m1uFU-34">
          <mxGeometry relative="1" as="geometry" />
        </mxCell>
        <mxCell id="vWO0dV-lUaELqf2m1uFU-39" value="" style="edgeStyle=orthogonalEdgeStyle;rounded=0;orthogonalLoop=1;jettySize=auto;html=1;entryX=0.5;entryY=0;entryDx=0;entryDy=0;" edge="1" parent="vWO0dV-lUaELqf2m1uFU-1" source="vWO0dV-lUaELqf2m1uFU-34" target="vWO0dV-lUaELqf2m1uFU-41">
          <mxGeometry relative="1" as="geometry">
            <mxPoint x="715" y="500" as="targetPoint" />
          </mxGeometry>
        </mxCell>
        <mxCell id="vWO0dV-lUaELqf2m1uFU-41" value="Notification of award to successful/ unsuccessful bidder" style="whiteSpace=wrap;html=1;rounded=0;" vertex="1" parent="vWO0dV-lUaELqf2m1uFU-1">
          <mxGeometry x="640" y="480" width="150" height="60" as="geometry" />
        </mxCell>
        <mxCell id="vWO0dV-lUaELqf2m1uFU-42" value="Supplier acknowledges receipt of award through a formal acceptance letter within the stipulated timelines(7days)" style="whiteSpace=wrap;html=1;rounded=0;" vertex="1" parent="vWO0dV-lUaELqf2m1uFU-1">
          <mxGeometry x="610" y="590" width="210" height="70" as="geometry" />
        </mxCell>
        <mxCell id="vWO0dV-lUaELqf2m1uFU-43" value="" style="edgeStyle=orthogonalEdgeStyle;rounded=0;orthogonalLoop=1;jettySize=auto;html=1;" edge="1" parent="vWO0dV-lUaELqf2m1uFU-1" source="vWO0dV-lUaELqf2m1uFU-41" target="vWO0dV-lUaELqf2m1uFU-42">
          <mxGeometry relative="1" as="geometry" />
        </mxCell>
        <mxCell id="vWO0dV-lUaELqf2m1uFU-45" value="HoD procurement prepares a contract document for the successful bidder and forwards to the CEO for signature" style="whiteSpace=wrap;html=1;rounded=0;" vertex="1" parent="vWO0dV-lUaELqf2m1uFU-1">
          <mxGeometry x="620" y="714.25" width="190" height="75" as="geometry" />
        </mxCell>
        <mxCell id="vWO0dV-lUaELqf2m1uFU-46" value="" style="edgeStyle=orthogonalEdgeStyle;rounded=0;orthogonalLoop=1;jettySize=auto;html=1;exitX=0.5;exitY=1;exitDx=0;exitDy=0;" edge="1" parent="vWO0dV-lUaELqf2m1uFU-1" target="vWO0dV-lUaELqf2m1uFU-45" source="vWO0dV-lUaELqf2m1uFU-42">
          <mxGeometry relative="1" as="geometry">
            <mxPoint x="714.5" y="651.75" as="sourcePoint" />
          </mxGeometry>
        </mxCell>
        <mxCell id="vWO0dV-lUaELqf2m1uFU-47" value="Accounting officer issues a signed contract document to the bidder who also signs the contract" style="whiteSpace=wrap;html=1;rounded=0;" vertex="1" parent="vWO0dV-lUaELqf2m1uFU-1">
          <mxGeometry x="897" y="706.75" width="140" height="90" as="geometry" />
        </mxCell>
        <mxCell id="vWO0dV-lUaELqf2m1uFU-48" value="" style="edgeStyle=orthogonalEdgeStyle;rounded=0;orthogonalLoop=1;jettySize=auto;html=1;" edge="1" parent="vWO0dV-lUaELqf2m1uFU-1" source="vWO0dV-lUaELqf2m1uFU-45" target="vWO0dV-lUaELqf2m1uFU-47">
          <mxGeometry relative="1" as="geometry" />
        </mxCell>
        <mxCell id="vWO0dV-lUaELqf2m1uFU-52" value="CEO Recommend to the committee /HOD procurement to re-evaluate, or terminates the procurement proceedings" style="whiteSpace=wrap;html=1;rounded=0;" vertex="1" parent="vWO0dV-lUaELqf2m1uFU-1">
          <mxGeometry x="877" y="340" width="160" height="100" as="geometry" />
        </mxCell>
        <mxCell id="vWO0dV-lUaELqf2m1uFU-37" value="" style="edgeStyle=orthogonalEdgeStyle;rounded=0;orthogonalLoop=1;jettySize=auto;html=1;entryX=0;entryY=0.5;entryDx=0;entryDy=0;" edge="1" parent="vWO0dV-lUaELqf2m1uFU-1" source="vWO0dV-lUaELqf2m1uFU-34" target="vWO0dV-lUaELqf2m1uFU-52">
          <mxGeometry relative="1" as="geometry">
            <mxPoint x="820" y="409" as="targetPoint" />
          </mxGeometry>
        </mxCell>
        <mxCell id="vWO0dV-lUaELqf2m1uFU-54" value="" style="edgeStyle=orthogonalEdgeStyle;rounded=0;orthogonalLoop=1;jettySize=auto;html=1;entryX=1;entryY=0.5;entryDx=0;entryDy=0;" edge="1" parent="vWO0dV-lUaELqf2m1uFU-1" source="vWO0dV-lUaELqf2m1uFU-52" target="vWO0dV-lUaELqf2m1uFU-28">
          <mxGeometry relative="1" as="geometry">
            <mxPoint x="957" y="240" as="targetPoint" />
            <Array as="points">
              <mxPoint x="950" y="140" />
            </Array>
          </mxGeometry>
        </mxCell>
        <mxCell id="vWO0dV-lUaELqf2m1uFU-55" value="yes" style="text;html=1;strokeColor=none;fillColor=none;align=center;verticalAlign=middle;whiteSpace=wrap;rounded=0;" vertex="1" parent="vWO0dV-lUaELqf2m1uFU-1">
          <mxGeometry x="790" y="369" width="40" height="20" as="geometry" />
        </mxCell>
        <mxCell id="vWO0dV-lUaELqf2m1uFU-57" value="no" style="text;html=1;strokeColor=none;fillColor=none;align=center;verticalAlign=middle;whiteSpace=wrap;rounded=0;" vertex="1" parent="vWO0dV-lUaELqf2m1uFU-1">
          <mxGeometry x="710" y="440" width="40" height="20" as="geometry" />
        </mxCell>
        <mxCell id="vWO0dV-lUaELqf2m1uFU-9" value="" style="edgeStyle=orthogonalEdgeStyle;rounded=0;orthogonalLoop=1;jettySize=auto;html=1;" edge="1" parent="1" source="vWO0dV-lUaELqf2m1uFU-6" target="vWO0dV-lUaELqf2m1uFU-10">
          <mxGeometry relative="1" as="geometry">
            <mxPoint x="120" y="480" as="targetPoint" />
          </mxGeometry>
        </mxCell>
        <mxCell id="vWO0dV-lUaELqf2m1uFU-6" value="HoD Procurement places an advert in the newspapers, website, ppip portal and noticeboards" style="whiteSpace=wrap;html=1;rounded=0;" vertex="1" parent="1">
          <mxGeometry x="30" y="330" width="180" height="80" as="geometry" />
        </mxCell>
        <mxCell id="vWO0dV-lUaELqf2m1uFU-7" value="" style="edgeStyle=orthogonalEdgeStyle;rounded=0;orthogonalLoop=1;jettySize=auto;html=1;" edge="1" parent="1" source="vWO0dV-lUaELqf2m1uFU-5" target="vWO0dV-lUaELqf2m1uFU-6">
          <mxGeometry relative="1" as="geometry" />
        </mxCell>
        <mxCell id="vWO0dV-lUaELqf2m1uFU-18" value="no" style="text;html=1;strokeColor=none;fillColor=none;align=center;verticalAlign=middle;whiteSpace=wrap;rounded=0;" vertex="1" parent="1">
          <mxGeometry x="193" y="500" width="40" height="20" as="geometry" />
        </mxCell>
        <mxCell id="vWO0dV-lUaELqf2m1uFU-27" value="" style="edgeStyle=orthogonalEdgeStyle;rounded=0;orthogonalLoop=1;jettySize=auto;html=1;" edge="1" parent="1" source="vWO0dV-lUaELqf2m1uFU-24" target="vWO0dV-lUaELqf2m1uFU-26">
          <mxGeometry relative="1" as="geometry" />
        </mxCell>
        <mxCell id="vWO0dV-lUaELqf2m1uFU-24" value="Accounting officer (CEO) reviews the opening and evaluation committee (he/she &lt;br&gt;may remove or add to the list of members) and appoints them" style="whiteSpace=wrap;html=1;rounded=0;" vertex="1" parent="1">
          <mxGeometry x="370" y="230" width="180" height="100" as="geometry" />
        </mxCell>
        <mxCell id="vWO0dV-lUaELqf2m1uFU-25" value="" style="edgeStyle=orthogonalEdgeStyle;rounded=0;orthogonalLoop=1;jettySize=auto;html=1;" edge="1" parent="1" source="vWO0dV-lUaELqf2m1uFU-22" target="vWO0dV-lUaELqf2m1uFU-24">
          <mxGeometry relative="1" as="geometry" />
        </mxCell>
        <mxCell id="vWO0dV-lUaELqf2m1uFU-49" value="End" style="rounded=1;whiteSpace=wrap;html=1;" vertex="1" parent="1">
          <mxGeometry x="932" y="611.75" width="90" height="50" as="geometry" />
        </mxCell>
        <mxCell id="vWO0dV-lUaELqf2m1uFU-50" value="" style="edgeStyle=orthogonalEdgeStyle;rounded=0;orthogonalLoop=1;jettySize=auto;html=1;entryX=0.5;entryY=1;entryDx=0;entryDy=0;" edge="1" parent="1" source="vWO0dV-lUaELqf2m1uFU-47" target="vWO0dV-lUaELqf2m1uFU-49">
          <mxGeometry relative="1" as="geometry">
            <mxPoint x="967" y="629.25" as="targetPoint" />
          </mxGeometry>
        </mxCell>
      </root>
    </mxGraphModel>
  </diagram>
</mxfile>
